<?xml version="1.0" encoding="UTF-8" standalone="no"?>
<!-- Created with Inkscape (http://www.inkscape.org/) -->

<svg
   xmlns:dc="http://purl.org/dc/elements/1.1/"
   xmlns:cc="http://creativecommons.org/ns#"
   xmlns:rdf="http://www.w3.org/1999/02/22-rdf-syntax-ns#"
   xmlns:svg="http://www.w3.org/2000/svg"
   xmlns="http://www.w3.org/2000/svg"
   xmlns:sodipodi="http://sodipodi.sourceforge.net/DTD/sodipodi-0.dtd"
   xmlns:inkscape="http://www.inkscape.org/namespaces/inkscape"
   id="svg2"
   version="1.1"
   inkscape:version="0.91 r13725"
   width="48.744186mm"
   height="80mm"
   xml:space="preserve"
   sodipodi:docname="st-link_v2_baite.svg"><metadata
     id="metadata8"><rdf:RDF><cc:Work
         rdf:about=""><dc:format>image/svg+xml</dc:format><dc:type
           rdf:resource="http://purl.org/dc/dcmitype/StillImage" /><dc:title></dc:title></cc:Work></rdf:RDF></metadata><defs
     id="defs6"><clipPath
       clipPathUnits="userSpaceOnUse"
       id="clipPath16"><path
         d="m 0,0.1 595.2,0 0,841.8 L 0,841.9 0,0.1 Z"
         id="path18"
         inkscape:connector-curvature="0"
         style="clip-rule:evenodd" /></clipPath><clipPath
       clipPathUnits="userSpaceOnUse"
       id="clipPath24"><path
         d="m 56.7,771.2 481.8,0 0,14.1 -481.8,0 0,-14.1 z"
         id="path26"
         inkscape:connector-curvature="0"
         style="clip-rule:evenodd" /></clipPath><clipPath
       clipPathUnits="userSpaceOnUse"
       id="clipPath42"><path
         d="m 56.7,56.8 481.8,0 0,14.1 -481.8,0 0,-14.1 z"
         id="path44"
         inkscape:connector-curvature="0"
         style="clip-rule:evenodd" /></clipPath></defs><sodipodi:namedview
     pagecolor="#ffffff"
     bordercolor="#666666"
     borderopacity="1"
     objecttolerance="10"
     gridtolerance="10"
     guidetolerance="10"
     inkscape:pageopacity="0"
     inkscape:pageshadow="2"
     inkscape:window-width="1920"
     inkscape:window-height="1147"
     id="namedview4"
     showgrid="false"
     fit-margin-top="5"
     fit-margin-left="5"
     fit-margin-right="5"
     fit-margin-bottom="5"
     inkscape:zoom="1.7938243"
     inkscape:cx="-48.692801"
     inkscape:cy="29.79133"
     inkscape:window-x="0"
     inkscape:window-y="24"
     inkscape:window-maximized="1"
     inkscape:current-layer="g10"
     inkscape:document-units="mm"
     units="mm" /><g
     id="g10"
     inkscape:groupmode="layer"
     inkscape:label="st-link v2_baite"
     transform="matrix(1.25,0,0,-1.25,-56.989038,1234.4226)"><g
       id="g4194"
       transform="matrix(0.5832863,0,0,0.5832863,28.85361,376.72859)"><g
         id="g12"><g
           clip-path="url(#clipPath16)"
           id="g14" /></g><path
         inkscape:connector-curvature="0"
         id="path62"
         style="fill:#000000;fill-opacity:1;fill-rule:evenodd;stroke:none"
         d="m 161.6,751.3 -0.5,-0.5 -40.8,0 -0.5,0.5 -0.5,0.5 42.8,0 -0.5,-0.5 z" /><path
         inkscape:connector-curvature="0"
         id="path64"
         style="fill:#000000;fill-opacity:1;fill-rule:evenodd;stroke:none"
         d="m 161.6,738.5 -0.5,-0.5 -40.8,0 -0.5,0.5 0.5,0.5 40.8,0 0.5,-0.5 z" /><path
         inkscape:connector-curvature="0"
         id="path66"
         style="fill:#000000;fill-opacity:1;fill-rule:evenodd;stroke:none"
         d="m 161.6,725.8 -0.5,-0.6 -39.2,0 -2.1,0.6 0.5,0.5 40.8,0 0.5,-0.5 z" /><path
         inkscape:connector-curvature="0"
         id="path68"
         style="fill:#000000;fill-opacity:1;fill-rule:evenodd;stroke:none"
         d="m 161.6,713 -0.5,-0.5 -40.8,0 -0.5,0.5 2.1,0.5 39.2,0 0.5,-0.5 z" /><path
         inkscape:connector-curvature="0"
         id="path70"
         style="fill:#000000;fill-opacity:1;fill-rule:evenodd;stroke:none"
         d="m 161.6,700.2 -0.5,-0.5 -40.8,0 -0.5,0.5 0.5,0.5 40.8,0 0.5,-0.5 z" /><path
         inkscape:connector-curvature="0"
         id="path72"
         style="fill:#000000;fill-opacity:1;fill-rule:evenodd;stroke:none"
         d="m 161.6,687.4 0.5,-0.5 -42.8,0 0.5,0.5 0.5,0.5 40.8,0 0.5,-0.5 z" /><path
         inkscape:connector-curvature="0"
         id="path74"
         style="fill:#000000;fill-opacity:1;fill-rule:evenodd;stroke:none"
         d="m 119.8,751.3 0.5,-0.5 0,-24.5 -0.5,-0.5 -0.5,-0.6 0,26.6 0.5,-0.5 z" /><path
         inkscape:connector-curvature="0"
         id="path76"
         style="fill:#000000;fill-opacity:1;fill-rule:evenodd;stroke:none"
         d="m 119.8,725.8 2,-0.6 0,-11.7 -2,-0.5 -2,-0.5 0,13.8 2,-0.5 z" /><path
         inkscape:connector-curvature="0"
         id="path78"
         style="fill:#000000;fill-opacity:1;fill-rule:evenodd;stroke:none"
         d="m 119.8,713 0.5,-0.5 0,-24.6 -0.5,-0.5 -0.5,-0.5 0,26.6 0.5,-0.5 z" /><path
         inkscape:connector-curvature="0"
         id="path80"
         style="fill:#000000;fill-opacity:1;fill-rule:evenodd;stroke:none"
         d="m 140.7,751.3 0.5,-0.5 0,-62.9 -0.5,-0.5 -0.5,0.5 0,62.9 0.5,0.5 z" /><path
         inkscape:connector-curvature="0"
         id="path82"
         style="fill:#000000;fill-opacity:1;fill-rule:evenodd;stroke:none"
         d="m 161.6,751.3 0.5,0.5 0,-64.9 -0.5,0.5 -0.5,0.5 0,62.9 0.5,0.5 z" /><text
         id="text84"
         transform="matrix(1,0,0,-1,105.7,754.6)"><tspan
           id="tspan86"
           sodipodi:role="line"
           y="0"
           x="0 5.994 10.998 13.995 19.485001 21.978001 27.468 32.472 34.965 40.959 45.963001 48.456001 51.452999 57.951 64.448997 66.942001 72.431999 78.426003"
           style="font-variant:normal;font-weight:bold;font-size:9px;font-family:'Liberation Sans';-inkscape-font-specification:LiberationSans-Bold;writing-mode:lr-tb;fill:#000000;fill-opacity:1;fill-rule:nonzero;stroke:none">ST-Link V2 (BAITE)</tspan></text>
<text
         id="text88"
         transform="matrix(1,0,0,-1,90.4,741.7)"><tspan
           id="tspan90"
           sodipodi:role="line"
           y="0"
           x="0 5.5900002 12.79 19.48 25.58"
           style="font-variant:normal;font-weight:bold;font-size:10px;font-family:'Liberation Sans';-inkscape-font-specification:LiberationSans-Bold;writing-mode:lr-tb;fill:#000000;fill-opacity:1;fill-rule:nonzero;stroke:none">JRST </tspan></text>
<text
         id="text92"
         transform="matrix(1,0,0,-1,127.4,741.7)"><tspan
           id="tspan94"
           y="0"
           x="0"
           style="font-variant:normal;font-weight:bold;font-size:10px;font-family:'Liberation Sans';-inkscape-font-specification:LiberationSans-Bold;writing-mode:lr-tb;fill:#000000;fill-opacity:1;fill-rule:nonzero;stroke:none">1</tspan></text>
<text
         id="text96"
         transform="matrix(1,0,0,-1,148.3,741.7)"><tspan
           id="tspan98"
           y="0"
           x="0"
           style="font-variant:normal;font-weight:bold;font-size:10px;font-family:'Liberation Sans';-inkscape-font-specification:LiberationSans-Bold;writing-mode:lr-tb;fill:#000000;fill-opacity:1;fill-rule:nonzero;stroke:none">2</tspan></text>
<text
         id="text100"
         transform="matrix(1,0,0,-1,165.39,741.7)"><tspan
           id="tspan102"
           sodipodi:role="line"
           y="0"
           x="0 5.5900002 12.28"
           style="font-variant:normal;font-weight:bold;font-size:10px;font-family:'Liberation Sans';-inkscape-font-specification:LiberationSans-Bold;writing-mode:lr-tb;fill:#000000;fill-opacity:1;fill-rule:nonzero;stroke:none">3V3</tspan></text>
<text
         id="text104"
         transform="matrix(1,0,0,-1,103.7,728.9)"><tspan
           id="tspan106"
           sodipodi:role="line"
           y="0"
           x="0 5.5900002 12.28"
           style="font-variant:normal;font-weight:bold;font-size:10px;font-family:'Liberation Sans';-inkscape-font-specification:LiberationSans-Bold;writing-mode:lr-tb;fill:#000000;fill-opacity:1;fill-rule:nonzero;stroke:none">5V </tspan></text>
<text
         id="text108"
         transform="matrix(1,0,0,-1,127.4,728.9)"><tspan
           id="tspan110"
           y="0"
           x="0"
           style="font-variant:normal;font-weight:bold;font-size:10px;font-family:'Liberation Sans';-inkscape-font-specification:LiberationSans-Bold;writing-mode:lr-tb;fill:#000000;fill-opacity:1;fill-rule:nonzero;stroke:none">3</tspan></text>
<text
         id="text112"
         transform="matrix(1,0,0,-1,148.3,728.9)"><tspan
           id="tspan114"
           y="0"
           x="0"
           style="font-variant:normal;font-weight:bold;font-size:10px;font-family:'Liberation Sans';-inkscape-font-specification:LiberationSans-Bold;writing-mode:lr-tb;fill:#000000;fill-opacity:1;fill-rule:nonzero;stroke:none">4</tspan></text>
<text
         id="text116"
         transform="matrix(1,0,0,-1,165.39,728.9)"><tspan
           id="tspan118"
           sodipodi:role="line"
           y="0"
           x="0 5.5900002 11.69 18.889999 26.09 28.879999 35.57 44.970001 52.169998 58.27"
           style="font-variant:normal;font-weight:bold;font-size:10px;font-family:'Liberation Sans';-inkscape-font-specification:LiberationSans-Bold;writing-mode:lr-tb;fill:#000000;fill-opacity:1;fill-rule:nonzero;stroke:none">JTCK/SWCLK</tspan></text>
<text
         id="text120"
         transform="matrix(1,0,0,-1,88.8,716.1)"><tspan
           id="tspan122"
           sodipodi:role="line"
           y="0"
           x="0 6.6900001 16.09 18.879999 27.18"
           style="font-variant:normal;font-weight:bold;font-size:10px;font-family:'Liberation Sans';-inkscape-font-specification:LiberationSans-Bold;writing-mode:lr-tb;fill:#000000;fill-opacity:1;fill-rule:nonzero;stroke:none">SWIM </tspan></text>
<text
         id="text124"
         transform="matrix(1,0,0,-1,127.4,716.1)"><tspan
           id="tspan126"
           y="0"
           x="0"
           style="font-variant:normal;font-weight:bold;font-size:10px;font-family:'Liberation Sans';-inkscape-font-specification:LiberationSans-Bold;writing-mode:lr-tb;fill:#000000;fill-opacity:1;fill-rule:nonzero;stroke:none">5</tspan></text>
<text
         id="text128"
         transform="matrix(1,0,0,-1,148.3,716.1)"><tspan
           id="tspan130"
           y="0"
           x="0"
           style="font-variant:normal;font-weight:bold;font-size:10px;font-family:'Liberation Sans';-inkscape-font-specification:LiberationSans-Bold;writing-mode:lr-tb;fill:#000000;fill-opacity:1;fill-rule:nonzero;stroke:none">6</tspan></text>
<text
         id="text132"
         transform="matrix(1,0,0,-1,165.39,716.1)"><tspan
           id="tspan134"
           sodipodi:role="line"
           y="0"
           x="0 5.5900002 11.69 19.99 26.68 29.469999 36.16 45.560001 52.759998 55.549999"
           style="font-variant:normal;font-weight:bold;font-size:10px;font-family:'Liberation Sans';-inkscape-font-specification:LiberationSans-Bold;writing-mode:lr-tb;fill:#000000;fill-opacity:1;fill-rule:nonzero;stroke:none">JTMS/SWDIO</tspan></text>
<text
         id="text136"
         transform="matrix(1,0,0,-1,93.8,703.4)"><tspan
           id="tspan138"
           sodipodi:role="line"
           y="0"
           x="0 7.79 14.99 22.190001"
           style="font-variant:normal;font-weight:bold;font-size:10px;font-family:'Liberation Sans';-inkscape-font-specification:LiberationSans-Bold;writing-mode:lr-tb;fill:#000000;fill-opacity:1;fill-rule:nonzero;stroke:none">GND </tspan></text>
<text
         id="text140"
         transform="matrix(1,0,0,-1,127.4,703.4)"><tspan
           id="tspan142"
           y="0"
           x="0"
           style="font-variant:normal;font-weight:bold;font-size:10px;font-family:'Liberation Sans';-inkscape-font-specification:LiberationSans-Bold;writing-mode:lr-tb;fill:#000000;fill-opacity:1;fill-rule:nonzero;stroke:none">7</tspan></text>
<text
         id="text144"
         transform="matrix(1,0,0,-1,148.3,703.4)"><tspan
           id="tspan146"
           y="0"
           x="0"
           style="font-variant:normal;font-weight:bold;font-size:10px;font-family:'Liberation Sans';-inkscape-font-specification:LiberationSans-Bold;writing-mode:lr-tb;fill:#000000;fill-opacity:1;fill-rule:nonzero;stroke:none">8</tspan></text>
<text
         id="text148"
         transform="matrix(1,0,0,-1,165.39,703.4)"><tspan
           id="tspan150"
           sodipodi:role="line"
           y="0"
           x="0 5.5900002 11.69 18.889999"
           style="font-variant:normal;font-weight:bold;font-size:10px;font-family:'Liberation Sans';-inkscape-font-specification:LiberationSans-Bold;writing-mode:lr-tb;fill:#000000;fill-opacity:1;fill-rule:nonzero;stroke:none">JTDO</tspan></text>
<text
         id="text152"
         transform="matrix(1,0,0,-1,63.2,690.6)"><tspan
           id="tspan154"
           sodipodi:role="line"
           y="0"
           x="0 6.6900001 16.09 18.879999 27.18 32.77 39.970001 46.66 52.759998"
           style="font-variant:normal;font-weight:bold;font-size:10px;font-family:'Liberation Sans';-inkscape-font-specification:LiberationSans-Bold;writing-mode:lr-tb;fill:#000000;fill-opacity:1;fill-rule:nonzero;stroke:none">SWIM_RST </tspan></text>
<text
         id="text156"
         transform="matrix(1,0,0,-1,127.4,690.6)"><tspan
           id="tspan158"
           y="0"
           x="0"
           style="font-variant:normal;font-weight:bold;font-size:10px;font-family:'Liberation Sans';-inkscape-font-specification:LiberationSans-Bold;writing-mode:lr-tb;fill:#000000;fill-opacity:1;fill-rule:nonzero;stroke:none">9</tspan></text>
<text
         id="text160"
         transform="matrix(1,0,0,-1,145.5,690.6)"><tspan
           id="tspan162"
           sodipodi:role="line"
           y="0"
           x="0 5.5900002"
           style="font-variant:normal;font-weight:bold;font-size:10px;font-family:'Liberation Sans';-inkscape-font-specification:LiberationSans-Bold;writing-mode:lr-tb;fill:#000000;fill-opacity:1;fill-rule:nonzero;stroke:none">10</tspan></text>
<text
         id="text164"
         transform="matrix(1,0,0,-1,165.39,690.6)"><tspan
           id="tspan166"
           sodipodi:role="line"
           y="0"
           x="0 5.5900002 11.69 18.889999"
           style="font-variant:normal;font-weight:bold;font-size:10px;font-family:'Liberation Sans';-inkscape-font-specification:LiberationSans-Bold;writing-mode:lr-tb;fill:#000000;fill-opacity:1;fill-rule:nonzero;stroke:none">JTDI</tspan></text>
</g><rect
       style="opacity:1;fill:none;fill-opacity:1;stroke:#000000;stroke-width:0.70866144;stroke-miterlimit:4;stroke-dasharray:none;stroke-opacity:1"
       id="rect4253"
       width="109.11738"
       height="47.480316"
       x="60.11879"
       y="-822.77429"
       transform="scale(1,-1)" /></g></svg>